# xmcd
# Track frame offsets:
# 150
# 12652
# 25512
# 36012
# 50797
# 61625
# 74552
# 91215
# 104725
# 117727
# 138992
# 149917
#
# Disc length: 2232 seconds
# Revision: 0
# Processed by: cddbd v1.4PL0 Copyright (c) Steve Scherf et al.
# Submitted via: VisiTrax 2.9.5.180 - For more info visit www.synapsa.com
#
DISCID=b708b60c
DTITLE=Wild Roses - Wild Roses
DYEAR=1900
DGENRE=Country
TTITLE0=Ruby,Don`t take You Love To Town
TTITLE1=Walk On By
TTITLE2=Billy Bayou
TTITLE3=The Night They Drove Old Dixie Down
TTITLE4=Act Naturally
TTITLE5=The Star
TTITLE6=Ghost Rider In The Sky
TTITLE7=Down At The Twist And Shout
TTITLE8=Every Little Thing
TTITLE9=Kawliga
TTITLE10=Fox On The Run
TTITLE11=Back To The Wall
EXTD=
EXTT0=
EXTT1=
EXTT2=
EXTT3=
EXTT4=
EXTT5=
EXTT6=
EXTT7=
EXTT8=
EXTT9=
EXTT10=
EXTT11=
PLAYORDER=
